<svg id="Group_9" data-name="Group 9" xmlns="http://www.w3.org/2000/svg" xmlns:xlink="http://www.w3.org/1999/xlink" width="516.387" height="460.58" viewBox="0 0 516.387 460.58">
  <defs>
    <linearGradient id="linear-gradient" x1="0.5" y1="1" x2="0.5" gradientUnits="objectBoundingBox">
      <stop offset="0" stop-color="gray" stop-opacity="0.251"/>
      <stop offset="0.54" stop-color="gray" stop-opacity="0.122"/>
      <stop offset="1" stop-color="gray" stop-opacity="0.102"/>
    </linearGradient>
  </defs>
  <path id="Path_62" data-name="Path 62" d="M576.848,164.076a136.4,136.4,0,0,0-19.907-34.727L280.8,126.37,508.157,91.407a119.348,119.348,0,0,0-46.129-10.019C440.14,62.035,412.009,50.4,381.324,50.4a120.742,120.742,0,0,0-73.745,25.266,119.7,119.7,0,0,0-59.109-15.6c-61.356,0-112.48,46.529-123.951,108.235Z" transform="translate(-73.034 -50.4)" fill="#2441ff" opacity="0.1"/>
  <path id="Path_63" data-name="Path 63" d="M551.387,301.921a138.107,138.107,0,0,0-8.856-48.841L50.016,308.1a136.728,136.728,0,0,0-11.539,31.006L190.995,363.3,35,380.939c4.693,69.85,60.975,125.012,129.727,125.012a127.357,127.357,0,0,0,89.353-36.774,127.383,127.383,0,0,0,90.1,37.493c51.9,0,96.7-31.443,117.558-76.907,41.85-14.131,74.36-49.623,85.487-94.012L354.351,303.934H551.387Z" transform="translate(-35 -135.985)" fill="#2441ff" opacity="0.1"/>
  <path id="Path_64" data-name="Path 64" d="M286.594,502.816s-26.583-38.356-22.068-74.555a70.707,70.707,0,0,0-8.512-43.906,118.888,118.888,0,0,0-12.5-17.795" transform="translate(-149.974 -184.201)" fill="none" stroke="#535461" stroke-miterlimit="10" stroke-width="2"/>
  <path id="Path_65" data-name="Path 65" d="M233.911,321.834c1.725,5.2-2.709,23.431-2.709,23.431s-14.43-11.98-16.156-17.191a9.935,9.935,0,0,1,18.865-6.24Z" transform="translate(-122.427 -162.496)" fill="#2441ff"/>
  <path id="Path_66" data-name="Path 66" d="M277.558,358.871c-1.38,5.308-15.005,18.2-15.005,18.2s-5.6-17.9-4.216-23.207a9.932,9.932,0,1,1,19.222,5.01Z" transform="translate(-156.984 -175.803)" fill="#2441ff"/>
  <path id="Path_67" data-name="Path 67" d="M302.753,441.651c-3.876,3.888-22.143,8.132-22.143,8.132s4.2-18.278,8.052-22.16a9.933,9.933,0,1,1,14.068,14.028Z" transform="translate(-169.533 -208.967)" fill="#2441ff"/>
  <path id="Path_68" data-name="Path 68" d="M309.892,512.432c-3.163,4.48-20.452,11.756-20.452,11.756s1.052-18.727,4.216-23.207a9.934,9.934,0,0,1,16.236,11.451Z" transform="translate(-174.233 -239.494)" fill="#2441ff"/>
  <path id="Path_69" data-name="Path 69" d="M228.076,399.017c4.935,2.393,23.581.391,23.581.391s-9.984-15.874-14.954-18.272a9.933,9.933,0,0,0-8.627,17.881Z" transform="translate(-137.992 -190.157)" fill="#2441ff"/>
  <path id="Path_70" data-name="Path 70" d="M233.654,479.782c5.429.805,22.626-6.683,22.626-6.683s-14.281-12.164-19.7-12.969a9.934,9.934,0,0,0-2.922,19.652Z" transform="translate(-139.403 -223.934)" fill="#2441ff"/>
  <path id="Path_71" data-name="Path 71" d="M253.423,558.256c5.216,1.725,23.431-2.761,23.431-2.761s-12.02-14.378-17.254-16.1a9.934,9.934,0,0,0-6.2,18.876Z" transform="translate(-151.105 -257.348)" fill="#2441ff"/>
  <path id="Path_72" data-name="Path 72" d="M233.911,321.834c1.725,5.2-2.709,23.431-2.709,23.431s-14.43-11.98-16.156-17.191a9.935,9.935,0,0,1,18.865-6.24Z" transform="translate(-122.427 -162.496)" opacity="0.25"/>
  <path id="Path_73" data-name="Path 73" d="M277.558,358.871c-1.38,5.308-15.005,18.2-15.005,18.2s-5.6-17.9-4.216-23.207a9.932,9.932,0,1,1,19.222,5.01Z" transform="translate(-156.984 -175.803)" opacity="0.25"/>
  <path id="Path_74" data-name="Path 74" d="M302.753,441.651c-3.876,3.888-22.143,8.132-22.143,8.132s4.2-18.278,8.052-22.16a9.933,9.933,0,1,1,14.068,14.028Z" transform="translate(-169.533 -208.967)" opacity="0.25"/>
  <path id="Path_75" data-name="Path 75" d="M309.892,512.432c-3.163,4.48-20.452,11.756-20.452,11.756s1.052-18.727,4.216-23.207a9.934,9.934,0,0,1,16.236,11.451Z" transform="translate(-174.233 -239.494)" opacity="0.25"/>
  <path id="Path_76" data-name="Path 76" d="M228.076,399.017c4.935,2.393,23.581.391,23.581.391s-9.984-15.874-14.954-18.272a9.933,9.933,0,0,0-8.627,17.881Z" transform="translate(-137.992 -190.157)" opacity="0.25"/>
  <path id="Path_77" data-name="Path 77" d="M233.654,479.782c5.429.805,22.626-6.683,22.626-6.683s-14.281-12.164-19.7-12.969a9.934,9.934,0,0,0-2.922,19.652Z" transform="translate(-139.403 -223.934)" opacity="0.25"/>
  <path id="Path_78" data-name="Path 78" d="M253.423,558.256c5.216,1.725,23.431-2.761,23.431-2.761s-12.02-14.378-17.254-16.1a9.934,9.934,0,0,0-6.2,18.876Z" transform="translate(-151.105 -257.348)" opacity="0.25"/>
  <path id="Path_79" data-name="Path 79" d="M248.274,521.655s-39.846-24.294-50.393-59.239a70.742,70.742,0,0,0-25.571-36.688,118.866,118.866,0,0,0-18.64-11.2" transform="translate(-85.418 -204.552)" fill="none" stroke="#535461" stroke-miterlimit="10" stroke-width="2"/>
  <path id="Path_80" data-name="Path 80" d="M129.118,373.963c3.687,4.06,7.017,22.517,7.017,22.517s-18.042-5.107-21.729-9.168a9.933,9.933,0,1,1,14.712-13.349Z" transform="translate(-67.642 -186.09)" fill="#2441ff"/>
  <path id="Path_81" data-name="Path 81" d="M183.959,390.156c.886,5.418-6.327,22.724-6.327,22.724s-12.388-14.1-13.28-19.514a9.934,9.934,0,1,1,19.606-3.209Z" transform="translate(-89.901 -190.796)" fill="#2441ff"/>
  <path id="Path_82" data-name="Path 82" d="M244.151,454.027c-1.973,5.124-16.949,16.409-16.949,16.409s-3.566-18.4-1.6-23.535a9.935,9.935,0,0,1,18.548,7.126Z" transform="translate(-127.525 -215.664)" fill="#2441ff"/>
  <path id="Path_83" data-name="Path 83" d="M277.518,516.654c-1.075,5.383-13.936,19.037-13.936,19.037s-6.626-17.547-5.55-22.925a9.935,9.935,0,1,1,19.486,3.888Z" transform="translate(-156.875 -242.879)" fill="#2441ff"/>
  <path id="Path_84" data-name="Path 84" d="M154.793,446.867c5.487.19,21.723-9.2,21.723-9.2S160.959,427.2,155.472,427a9.933,9.933,0,0,0-.679,19.854Z" transform="translate(-81.82 -209.94)" fill="#2441ff"/>
  <path id="Path_85" data-name="Path 85" d="M192.889,518.534c5.291-1.461,17.979-15.276,17.979-15.276s-17.985-5.355-23.253-3.871a9.932,9.932,0,1,0,5.291,19.147Z" transform="translate(-96.743 -240.502)" fill="#2441ff"/>
  <path id="Path_86" data-name="Path 86" d="M242.771,582.2c5.464-.575,20.3-12.02,20.3-12.02s-16.823-8.293-22.281-7.747a9.933,9.933,0,0,0,1.978,19.767Z" transform="translate(-143.066 -267.309)" fill="#2441ff"/>
  <ellipse id="Ellipse_10" data-name="Ellipse 10" cx="102.95" cy="6.108" rx="102.95" ry="6.108" transform="translate(155.53 417.02)" fill="#2441ff" opacity="0.1"/>
  <ellipse id="Ellipse_11" data-name="Ellipse 11" cx="26.951" cy="4.906" rx="26.951" ry="4.906" transform="translate(312.41 445.351)" fill="#2441ff" opacity="0.1"/>
  <path id="Path_87" data-name="Path 87" d="M602.437,717.405v3.687H493.38v-3a35.848,35.848,0,0,0,2.467-66.21H601.719a35.871,35.871,0,0,0,.719,65.525Z" transform="translate(-294.831 -305.016)" fill="#c8cad7"/>
  <path id="Path_88" data-name="Path 88" d="M603.541,651.89a35.906,35.906,0,0,0-19.819,23.77H517.489a35.906,35.906,0,0,0-19.819-23.77Z" transform="translate(-296.878 -305.212)" opacity="0.1"/>
  <path id="Path_89" data-name="Path 89" d="M276.21,619.22v20.7c0,11.434,8.368,20.7,18.692,20.7H615.828c10.324,0,18.692-9.271,18.692-20.7v-20.7Z" transform="translate(-201.003 -291.342)" fill="#c8cad7"/>
  <path id="Path_90" data-name="Path 90" d="M602.437,763.01V766.7H493.38v-3a35.776,35.776,0,0,0,8.409-4.475h93.978A35.938,35.938,0,0,0,602.437,763.01Z" transform="translate(-294.831 -350.62)" opacity="0.1"/>
  <rect id="Rectangle_20" data-name="Rectangle 20" width="181.168" height="10.928" rx="5.464" transform="translate(162.76 409.75)" fill="#c8cad7"/>
  <path id="Path_91" data-name="Path 91" d="M634.52,210.912a18.692,18.692,0,0,0-18.692-18.692H294.9a18.692,18.692,0,0,0-18.692,18.692V441.829H634.52Z" transform="translate(-201.003 -110.293)" fill="#474157"/>
  <rect id="Rectangle_21" data-name="Rectangle 21" width="338.756" height="216.827" rx="16" transform="translate(84.78 99.776)" fill="#ededf4"/>
  <circle id="Ellipse_12" data-name="Ellipse 12" cx="4.314" cy="4.314" r="4.314" transform="translate(248.283 86.345)" fill="#fff"/>
  <circle id="Ellipse_13" data-name="Ellipse 13" cx="10.64" cy="10.64" r="10.64" transform="translate(241.986 338.795)" fill="#fff"/>
  <path id="Path_92" data-name="Path 92" d="M631.966,232.422H293.21a9.2,9.2,0,0,1,9.2-9.2H622.764A9.2,9.2,0,0,1,631.966,232.422Z" transform="translate(-208.43 -123.619)" fill="#c8cad7"/>
  <circle id="Ellipse_14" data-name="Ellipse 14" cx="2.301" cy="2.301" r="2.301" transform="translate(123.253 101.904)" fill="#ededf4"/>
  <circle id="Ellipse_15" data-name="Ellipse 15" cx="2.301" cy="2.301" r="2.301" transform="translate(128.727 101.904)" fill="#ededf4"/>
  <circle id="Ellipse_16" data-name="Ellipse 16" cx="2.301" cy="2.301" r="2.301" transform="translate(134.2 101.904)" fill="#ededf4"/>
  <rect id="Rectangle_22" data-name="Rectangle 22" width="86.846" height="5.176" transform="translate(122.944 116.6)" fill="#2441ff"/>
  <rect id="Rectangle_23" data-name="Rectangle 23" width="86.846" height="5.176" transform="translate(122.944 268.171)" fill="#2441ff"/>
  <rect id="Rectangle_24" data-name="Rectangle 24" width="161.038" height="5.176" transform="translate(117.144 279.697)" fill="#2441ff" opacity="0.2"/>
  <rect id="Rectangle_25" data-name="Rectangle 25" width="161.038" height="5.176" transform="translate(117.144 287.195)" fill="#2441ff" opacity="0.2"/>
  <rect id="Rectangle_26" data-name="Rectangle 26" width="161.038" height="5.176" transform="translate(117.144 294.687)" fill="#2441ff" opacity="0.2"/>
  <rect id="Rectangle_27" data-name="Rectangle 27" width="159.888" height="86.846" transform="translate(117.247 130.49)" fill="#2441ff" opacity="0.2"/>
  <rect id="Rectangle_28" data-name="Rectangle 28" width="37.384" height="34.508" transform="translate(127.379 225.555)" fill="#2441ff" opacity="0.2"/>
  <rect id="Rectangle_29" data-name="Rectangle 29" width="37.384" height="34.508" transform="translate(221.83 225.555)" fill="#2441ff" opacity="0.2"/>
  <rect id="Rectangle_30" data-name="Rectangle 30" width="37.384" height="34.508" transform="translate(173.93 225.555)" fill="#2441ff" opacity="0.2"/>
  <rect id="Rectangle_31" data-name="Rectangle 31" width="110.041" height="80.997" transform="translate(267.335 155.807)" fill="#2441ff" opacity="0.2"/>
  <rect id="Rectangle_32" data-name="Rectangle 32" width="86.846" height="5.176" transform="translate(279.799 172.214)" fill="#ededf4"/>
  <rect id="Rectangle_33" data-name="Rectangle 33" width="86.846" height="5.176" transform="translate(279.799 182.974)" fill="#ededf4"/>
  <rect id="Rectangle_34" data-name="Rectangle 34" width="86.846" height="5.176" transform="translate(279.799 193.734)" fill="#ededf4"/>
  <rect id="Rectangle_35" data-name="Rectangle 35" width="86.846" height="5.176" transform="translate(279.799 204.488)" fill="#ededf4"/>
  <rect id="Rectangle_36" data-name="Rectangle 36" width="86.846" height="5.176" transform="translate(279.799 215.248)" fill="#ededf4"/>
  <rect id="Rectangle_37" data-name="Rectangle 37" width="83.205" height="14.568" transform="translate(281.751 246.138)" fill="#2441ff"/>
  <rect id="Rectangle_38" data-name="Rectangle 38" width="55.794" height="9.772" transform="translate(282.311 294.774)" fill="#2441ff"/>
  <ellipse id="Ellipse_17" data-name="Ellipse 17" cx="16.449" cy="1.668" rx="16.449" ry="1.668" transform="translate(103.58 445.207)" fill="#2441ff" opacity="0.1"/>
  <ellipse id="Ellipse_18" data-name="Ellipse 18" cx="9.858" cy="1.001" rx="9.858" ry="1.001" transform="translate(374.743 422.023)" fill="#2441ff" opacity="0.1"/>
  <path id="Path_93" data-name="Path 93" d="M293.418,778s-21.453,11.083-10.353,24.156a4.091,4.091,0,0,0,4.061,2.634s-.6-1.1,1.725-1.973a11.256,11.256,0,0,0,2.3-1.231,5.458,5.458,0,0,0,2.076-2.772h0s4.388-5.872.989-16.736c0,0,.437-3.071.052-3.566l-2.634,3.514s2.7,1.806,3,4.463c0,0-2.807-4.457-3.416-3.951-.121.1-1.294,1.955-1.294,1.955s4.67,3.169,5.021,7.281c0,0-2.634-5.751-5.475-6.585l-1.6,2.9s5.107,3.106,5.682,7.776c0,0-2.962-5.924-5.987-7.12l-1.2,3.066s4.917,3.129,5.372,7.017c0,0-4.112-6.5-5.6-6.326a15.861,15.861,0,0,0-.805,3.767s3.479,2.3,3.543,4.6c0,0-3.209-4.055-3.7-3.785,0,0-.207,4.072.782,6.194a12.317,12.317,0,0,1-1.421-6.194,6.81,6.81,0,0,0-2.059,3.342s-.926-2.243,2.122-4.3c0,0,.288-3.169.638-3.56,0,0-3.3,1.6-4.693,3.583,0,0,.512-2.945,4.981-4.406l1.15-3.106s-4.463,1.892-5.838,3.56c0,0,.989-2.922,6.188-4.319l1.541-2.876a24.738,24.738,0,0,0-5.9,2.876s1.5-2.508,6.378-3.664l1.254-1.789s-2.876,1.029-3.681,1.4-.966.184-.966.184a10.4,10.4,0,0,1,5.176-2.341S293.619,778.167,293.418,778Z" transform="translate(-168.686 -358.599)" fill="#2441ff"/>
  <ellipse id="Ellipse_19" data-name="Ellipse 19" cx="12.607" cy="1.277" rx="12.607" ry="1.277" transform="translate(84.764 420.189)" fill="#2441ff" opacity="0.1"/>
  <path id="Path_94" data-name="Path 94" d="M204.33,745s-16.437,8.489-7.948,18.5a3.157,3.157,0,0,0,3.111,2.019s-.46-.84,1.306-1.513a8.917,8.917,0,0,0,1.771-.943,4.205,4.205,0,0,0,1.593-2.128h0s3.359-4.5.753-12.82c0,0,.339-2.358.04-2.738l-2,2.743a5.585,5.585,0,0,1,2.3,3.416s-2.151-3.411-2.617-3.025c-.092.081-.989,1.5-.989,1.5s3.577,2.427,3.848,5.579c0,0-2.019-4.417-4.2-5.044l-1.225,2.22s3.905,2.381,4.348,5.958c0,0-2.272-4.538-4.6-5.452l-.914,2.347s3.773,2.4,4.118,5.378c0,0-3.152-4.981-4.291-4.826a12.273,12.273,0,0,0-.615,2.876s2.669,1.783,2.715,3.531c0,0-2.462-3.106-2.841-2.876a13.043,13.043,0,0,0,.6,4.745,9.484,9.484,0,0,1-1.093-4.745,5.245,5.245,0,0,0-1.576,2.536s-.707-1.725,1.628-3.3a11.925,11.925,0,0,1,.489-2.726,11.379,11.379,0,0,0-3.595,2.743s.391-2.254,3.813-3.376l.868-2.381s-3.422,1.45-4.48,2.732c0,0,.759-2.243,4.745-3.313l1.185-2.191a19.362,19.362,0,0,0-4.526,2.191s1.15-1.927,4.889-2.807l.961-1.375s-2.2.788-2.818,1.076-.742.138-.742.138a7.981,7.981,0,0,1,3.957-1.794A24.118,24.118,0,0,0,204.33,745Z" transform="translate(-102.531 -344.579)" fill="#2441ff"/>
  <path id="Path_95" data-name="Path 95" d="M880.741,755.41s-12.854,6.666-6.217,14.465a2.467,2.467,0,0,0,2.433,1.576s-.362-.656,1.024-1.185a6.642,6.642,0,0,0,1.386-.736,3.291,3.291,0,0,0,1.242-1.662h0s2.629-3.52.575-10.025a6.493,6.493,0,0,0,.029-2.139l-1.559,2.139a4.377,4.377,0,0,1,1.8,2.68s-1.685-2.674-2.047-2.37c-.075.063-.776,1.15-.776,1.15s2.8,1.9,3.008,4.36c0,0-1.576-3.451-3.278-3.94l-.92,1.777s3.054,1.858,3.4,4.659c0,0-1.771-3.549-3.589-4.268l-.713,1.84s2.945,1.869,3.221,4.2c0,0-2.467-3.9-3.353-3.773a9.425,9.425,0,0,0-.483,2.254s2.082,1.392,2.122,2.761c0,0-1.927-2.427-2.22-2.266a10.164,10.164,0,0,0,.466,3.71,7.474,7.474,0,0,1-.851-3.71,4.1,4.1,0,0,0-1.231,1.984s-.575-1.346,1.271-2.577a9.58,9.58,0,0,1,.38-2.134,8.841,8.841,0,0,0-2.807,2.145s.3-1.766,2.979-2.64l.679-1.858a13.2,13.2,0,0,0-3.5,2.128s.575-1.726,3.715-2.588l.92-1.725a15.358,15.358,0,0,0-3.537,1.725s.9-1.5,3.825-2.191l.748-1.076s-1.725.621-2.2.84-.575.109-.575.109a6.223,6.223,0,0,1,3.094-1.4A15.5,15.5,0,0,0,880.741,755.41Z" transform="translate(-491.289 -349.002)" fill="#2441ff"/>
  <ellipse id="Ellipse_20" data-name="Ellipse 20" cx="24.012" cy="2.007" rx="24.012" ry="2.007" transform="translate(390.776 456.566)" fill="#2441ff" opacity="0.1"/>
  <path id="Path_96" data-name="Path 96" d="M977.98,732.839a10.024,10.024,0,0,0-1.311,2.473c-.08.213-.155.46-.236.7a2.57,2.57,0,0,0-.46-.161,6.328,6.328,0,0,0-2.047-.173c0-.27.029-.546.04-.845.081-3.031-.276-7.258-3.169-5.464-2.772,1.725-.794,4.6.995,6.442.155.161.311.311.46.454-1.628,1.15-1.944,3.871-2.214,6.695s-2.669,5.912-4.256,7.667l-.454.489a5.82,5.82,0,0,0-4.6-1.19c-.069-.247-.138-.506-.219-.777-1.282-4.653-3.957-12.71-7.373-14.476.15-.178.3-.368.454-.575,1.449-1.9,3.077-4.71.667-5.429s-2.623,2.439-2.49,4.808a4.934,4.934,0,0,0,.069.846,3.537,3.537,0,0,0-2.525,1.231l-.368-.443c-1.956-2.3-5.544-5.964-6.626-3.2-1.012,2.577,2.14,5.924,4.359,7.862l.144.121c-1.5,6.045,5.01,10.974,8.512,13.13l.454.276c-4.831,5.694-7.81,16.368-7.81,16.368L961.5,772.08s8.966-7.741,7.822-15.011h.092c8.961-1.794,11-11.353,9.6-17.03l.155-.063a10.153,10.153,0,0,0,4.152-3.14C985.813,733.339,980.585,729.388,977.98,732.839Z" transform="translate(-553.92 -337.594)" fill="#2441ff"/>
  <path id="Path_97" data-name="Path 97" d="M977.98,732.839a10.024,10.024,0,0,0-1.311,2.473c-.08.213-.155.46-.236.7a2.57,2.57,0,0,0-.46-.161,6.328,6.328,0,0,0-2.047-.173c0-.27.029-.546.04-.845.081-3.031-.276-7.258-3.169-5.464-2.772,1.725-.794,4.6.995,6.442.155.161.311.311.46.454-1.628,1.15-1.944,3.871-2.214,6.695s-2.669,5.912-4.256,7.667l-.454.489a5.82,5.82,0,0,0-4.6-1.19c-.069-.247-.138-.506-.219-.777-1.282-4.653-3.957-12.71-7.373-14.476.15-.178.3-.368.454-.575,1.449-1.9,3.077-4.71.667-5.429s-2.623,2.439-2.49,4.808a4.934,4.934,0,0,0,.069.846,3.537,3.537,0,0,0-2.525,1.231l-.368-.443c-1.956-2.3-5.544-5.964-6.626-3.2-1.012,2.577,2.14,5.924,4.359,7.862l.144.121c-1.5,6.045,5.01,10.974,8.512,13.13l.454.276c-4.831,5.694-7.81,16.368-7.81,16.368L961.5,772.08s8.966-7.741,7.822-15.011h.092c8.961-1.794,11-11.353,9.6-17.03l.155-.063a10.153,10.153,0,0,0,4.152-3.14C985.813,733.339,980.585,729.388,977.98,732.839Z" transform="translate(-553.92 -337.594)" opacity="0.1"/>
  <path id="Path_98" data-name="Path 98" d="M951.647,738.436l-1.582,4.6s-.88-.621-1.99-1.6c-2.214-1.938-5.372-5.286-4.36-7.862,1.081-2.766,4.67.886,6.626,3.2C951.124,737.723,951.647,738.436,951.647,738.436Z" transform="translate(-541.906 -339.304)" fill="#2441ff"/>
  <path id="Path_99" data-name="Path 99" d="M962.092,734.074a23.332,23.332,0,0,1-1.541,1.817,22.4,22.4,0,0,1-.282-2.439c-.132-2.37.115-5.516,2.49-4.808S963.553,732.176,962.092,734.074Z" transform="translate(-549.654 -337.587)" fill="#2441ff"/>
  <path id="Path_100" data-name="Path 100" d="M995.571,735.077c-.052,1.524-.2,2.743-.2,2.743a20.074,20.074,0,0,1-1.973-1.766c-1.789-1.858-3.767-4.722-.995-6.441C995.3,727.819,995.652,732.046,995.571,735.077Z" transform="translate(-574.697 -337.859)" fill="#2441ff"/>
  <path id="Path_101" data-name="Path 101" d="M1009.7,738.98a10.173,10.173,0,0,1-4.147,3.14,12.858,12.858,0,0,1-1.392.506l-1.863-2.617a18.556,18.556,0,0,1,.765-2.542,10.047,10.047,0,0,1,1.311-2.473C1006.953,731.56,1012.21,735.512,1009.7,738.98Z" transform="translate(-579.487 -339.766)" fill="#2441ff"/>
  <path id="Path_102" data-name="Path 102" d="M953.706,739.92c.782.92,1.306,1.633,1.306,1.633l-1.582,4.6s-.88-.621-1.99-1.6a9.091,9.091,0,0,1,1.783-4.066Q953.45,740.193,953.706,739.92Z" transform="translate(-545.37 -342.421)" opacity="0.1"/>
  <path id="Path_103" data-name="Path 103" d="M962.113,737.7a23.33,23.33,0,0,1-1.542,1.817,22.434,22.434,0,0,1-.282-2.439A3.194,3.194,0,0,1,962.113,737.7Z" transform="translate(-549.518 -341.214)" opacity="0.1"/>
  <path id="Path_104" data-name="Path 104" d="M966.081,756.7l-3.934,1.725s-.863-.414-2.1-1.185c-4.13-2.542-12.446-8.943-6.9-16.489s10.22,5.987,12.078,12.607C965.77,755.338,966.081,756.7,966.081,756.7Z" transform="translate(-546.252 -341.827)" fill="#2441ff"/>
  <path id="Path_105" data-name="Path 105" d="M995.15,740.408a3.221,3.221,0,0,1,2.174-.978c-.052,1.524-.2,2.743-.2,2.743A20.1,20.1,0,0,1,995.15,740.408Z" transform="translate(-576.45 -342.212)" opacity="0.1"/>
  <path id="Path_106" data-name="Path 106" d="M1005.6,744.923a12.915,12.915,0,0,1-1.392.506l-1.864-2.617a18.551,18.551,0,0,1,.765-2.542C1004.284,740.972,1005.17,742.72,1005.6,744.923Z" transform="translate(-579.504 -342.569)" opacity="0.1"/>
  <path id="Path_107" data-name="Path 107" d="M985.155,762.258c-.219.046-.443.086-.667.115-13.182,2.007-4.348-5.107-4.348-5.107s.575-.546,1.4-1.444c1.587-1.725,3.98-4.825,4.256-7.667.414-4.273.892-8.282,5.936-7.109S997.624,759.756,985.155,762.258Z" transform="translate(-568.841 -342.811)" fill="#2441ff"/>
  <rect id="Rectangle_39" data-name="Rectangle 39" width="25.197" height="6.626" transform="translate(401.795 452.281)" fill="#d4dfec"/>
  <rect id="Rectangle_40" data-name="Rectangle 40" width="32.921" height="23.121" transform="translate(397.531 430.748)" fill="#d4dfec"/>
  <rect id="Rectangle_41" data-name="Rectangle 41" width="25.197" height="6.626" transform="translate(401.795 452.281)" opacity="0.1"/>
  <rect id="Rectangle_42" data-name="Rectangle 42" width="32.921" height="23.121" transform="translate(397.531 430.748)" opacity="0.1"/>
  <rect id="Rectangle_43" data-name="Rectangle 43" width="25.197" height="6.626" transform="translate(403.27 452.281)" fill="#d4dfec"/>
  <path id="Path_108" data-name="Path 108" d="M971.666,764.32c.575,1.978.857,3.336.857,3.336l-3.934,1.725s-.863-.414-2.1-1.185A10.12,10.12,0,0,1,971.666,764.32Z" transform="translate(-564.273 -352.787)" opacity="0.1"/>
  <path id="Path_109" data-name="Path 109" d="M985.155,773.326c-.219.046-.443.086-.667.115-13.182,2.007-4.348-5.107-4.348-5.107s.575-.546,1.4-1.444A8.77,8.77,0,0,1,985.155,773.326Z" transform="translate(-568.841 -353.879)" opacity="0.1"/>
  <path id="Path_110" data-name="Path 110" d="M953.7,785.331s7.385-26.456,17.737-18.3-4.21,20.705-4.21,20.705Z" transform="translate(-548.004 -353.277)" fill="#2441ff"/>
  <circle id="Ellipse_21" data-name="Ellipse 21" cx="0.828" cy="0.828" r="0.828" transform="translate(409.988 402.244)" opacity="0.1"/>
  <circle id="Ellipse_22" data-name="Ellipse 22" cx="0.828" cy="0.828" r="0.828" transform="translate(409.926 406.109)" opacity="0.1"/>
  <circle id="Ellipse_23" data-name="Ellipse 23" cx="0.828" cy="0.828" r="0.828" transform="translate(421.708 403.003)" opacity="0.1"/>
  <circle id="Ellipse_24" data-name="Ellipse 24" cx="0.828" cy="0.828" r="0.828" transform="translate(402.384 422.811)" opacity="0.1"/>
  <circle id="Ellipse_25" data-name="Ellipse 25" cx="0.828" cy="0.828" r="0.828" transform="translate(419.983 409.422)" opacity="0.1"/>
  <circle id="Ellipse_26" data-name="Ellipse 26" cx="0.828" cy="0.828" r="0.828" transform="translate(411.425 417.98)" opacity="0.1"/>
  <circle id="Ellipse_27" data-name="Ellipse 27" cx="0.828" cy="0.828" r="0.828" transform="translate(412.522 403.901)" opacity="0.1"/>
  <circle id="Ellipse_28" data-name="Ellipse 28" cx="0.828" cy="0.828" r="0.828" transform="translate(419.431 405.488)" opacity="0.1"/>
  <circle id="Ellipse_29" data-name="Ellipse 29" cx="0.828" cy="0.828" r="0.828" transform="translate(416.601 411.907)" opacity="0.1"/>
  <circle id="Ellipse_30" data-name="Ellipse 30" cx="0.828" cy="0.828" r="0.828" transform="translate(407.905 422.19)" opacity="0.1"/>
  <circle id="Ellipse_31" data-name="Ellipse 31" cx="0.828" cy="0.828" r="0.828" transform="translate(406.11 418.118)" opacity="0.1"/>
  <circle id="Ellipse_32" data-name="Ellipse 32" cx="0.828" cy="0.828" r="0.828" transform="translate(401.831 408.939)" opacity="0.1"/>
  <rect id="Rectangle_44" data-name="Rectangle 44" width="25.197" height="2.421" transform="translate(403.27 452.281)" opacity="0.1"/>
  <rect id="Rectangle_45" data-name="Rectangle 45" width="32.921" height="23.121" transform="translate(399.009 430.748)" fill="#d4dfec"/>
  <circle id="Ellipse_33" data-name="Ellipse 33" cx="0.828" cy="0.828" r="0.828" transform="translate(409.009 425.917)" opacity="0.1"/>
  <circle id="Ellipse_34" data-name="Ellipse 34" cx="0.828" cy="0.828" r="0.828" transform="translate(404.04 426.952)" opacity="0.1"/>
  <path id="Path_111" data-name="Path 111" d="M794.578,537.679A4.069,4.069,0,0,1,793.5,534.8c0-.27-.04-.535-.052-.788a2.877,2.877,0,0,0,.8-.725c1.363-1.932-1.892-8.943-1.892-8.943a11.092,11.092,0,0,0,0-6.81,14.876,14.876,0,0,0-1.835-3.761s-4.256-8.742-3.623-9.777-1.052-9.2-2.3-10.841a23.872,23.872,0,0,0-1.679-2.036,11.839,11.839,0,0,0-1.576-6.327c-1.789-2.772-3.779-10.467-3.779-10.467s-2.2-7.218-3.779-9.777a10.931,10.931,0,0,0-2.3-2.364c.247-1.15.817-2.674-.817-11.692-.667-3.7.374-5.912,1.231-9.576s.673-7.9-1.955-10.669-6.706-3.284-9.967-5.176c-2.876-1.662-5.435-4.475-8.794-4.423-2.467.04-2.462.426-4.733,1.352-3.928,1.6-8.345,1.116-12.337,2.439-3.589,1.191-8.15,5.1-7.063,9.248a4.543,4.543,0,0,0,1.323,2.462,2.976,2.976,0,0,0,2.789.5.362.362,0,0,1-.04.2,10.636,10.636,0,0,0-.138,1.725,11.363,11.363,0,0,0,11.462,11.181c.035.132.063.27.1.408.086.368.167.736.247,1.116-.3.4-.61.794-.9,1.19a11.553,11.553,0,0,0-1.725,3.065c-3.324.679-8.9,1.777-9.777,3.215-1.15,1.932-5.878,11.5-5.355,15.857.029.241.052.575.075.92,0,0-2.91,5.176-3.33,6.8s-1.363,7.724-3.152,9.145-5.458,6-4.935,6.9-4.935,2.03-4.935,2.03-3.669,1.421-3.451,2.542c.063.339-.2.661-.575.972-4.176-1.375-9.5-2.3-13.619-.207-5.751,2.916,4.337,4.923,10.353,5.8.989.15,1.863.265,2.542.345.046.2.236.368.719.535.38.132.943.339,1.6.575l.242-.748c2,.707,7.442,2.91,7.442,2.91s4.728.771,6.091-1.973a24.881,24.881,0,0,1,3.853-4.6l-.19.615-3.98,13.13s-6.3,9.777-5.981,11.888-2,7.523-2.519,8.052-5.751,15.954-8.506,16.972-6.407,4.572-5.176,5.694,6.326,4.774,8.627,3.554,6.326,1.018,6.326,1.018a15.28,15.28,0,0,1,7.994,1c.04.4.086.828.132,1.283.374,3.451.983,8.219,1.633,9.6,1.053,2.237,2,6.2,1.15,7.724s.736,30.591,2.3,35.572c1.231,3.9,2.916,10.174,2.628,14.269-.172,2.49-.276,4.981-.293,7.477v.414c0,.138-.1.219-.144.334v.224a20.642,20.642,0,0,0-.914,2.651s-2.709,6.81-1.794,8.587a1.59,1.59,0,0,0,.431.5c1.306,1.047,4.6,1.271,5.751,1.317l-.052,1.725h1.547s.04-1.725.144-3.876a10.583,10.583,0,0,0,.667-3.784,15.478,15.478,0,0,1,1.38-6.539s.034-.178.069-.466h0a11.528,11.528,0,0,0,.1-1.789,6.326,6.326,0,0,0-.575-3.042,6.849,6.849,0,0,1,.115-1.858c.42-1.524-.633-12.193-.633-12.193l1.783-19.618s1.052-15.143.633-19.106a12.593,12.593,0,0,1,.075-3.186,102.827,102.827,0,0,0,1.15-13.01v-1.219c3.819,1.311,10.295.236,10.295.236s1.507-.035,3.508,0c.052.414.109.822.167,1.219a22.786,22.786,0,0,0,1.041,4.837c1.047,2.237,2,6.2,1.15,7.724s.73,30.591,2.3,35.572c1.237,3.9,2.922,10.169,2.634,14.269-.172,2.484-.276,4.975-.293,7.477v.46c-.052.109-.1.219-.15.334s0,.155,0,.224a20.969,20.969,0,0,0-.869,2.663s-2.714,6.815-1.794,8.593a1.511,1.511,0,0,0,.431.495c1.306,1.052,4.6,1.271,5.751,1.317l-.052,1.725h1.547s.04-1.725.144-3.876a10.584,10.584,0,0,0,.667-3.784,15.528,15.528,0,0,1,1.357-6.539,11.939,11.939,0,0,0,.167-2.243,6.292,6.292,0,0,0-.6-3.06,7.064,7.064,0,0,1,.115-1.852c.42-1.524-.627-12.2-.627-12.2l1.783-19.612s1.053-15.143.627-19.106a12.853,12.853,0,0,1,.081-3.186,102.525,102.525,0,0,0,1.15-12.36v-1.237c.38-.466,1.15-.834,3.278-1.547,3.675-1.219,11.025-7.321,13.964-7.724s5.561-2.341,4.722-3.865-5.458-2.542-5.038-4.877-2.835-3.761-4.3-7.621-7.879-6.9-7.983-9.777-6.05-11.664-6.05-11.664-5.976-9.938-7.3-16.012a2.133,2.133,0,0,0-.075-.391h.075a11,11,0,0,1-.219-1.38,2.137,2.137,0,0,1,.052-.391H759.4v-.259a.938.938,0,0,1,.127-.081l.345-.2-.115.046a11.39,11.39,0,0,0,1.9-1.553,8.454,8.454,0,0,0,2.191-3.06,15.526,15.526,0,0,0,.857-4.026l.748-1.15c.725,3.031,1.783,7.379,2.117,8.351a84.733,84.733,0,0,1,3.784,12.63,42.9,42.9,0,0,0,4.6,11.894s5.354,7.011,9.449,7.316,1.789,1.421,2.416,1.628l.178.04.063.822.178,2.387s4.2,17.076,8.926,14.637S796.142,538.794,794.578,537.679Z" transform="translate(-406.033 -206.774)" fill="url(#linear-gradient)"/>
  <path id="Path_112" data-name="Path 112" d="M866.531,634.655c-4.544,2.427-8.581-14.528-8.581-14.528l-.172-2.375-.328-4.492,5.55.707a16.929,16.929,0,0,0,0,2.916,4.106,4.106,0,0,0,1.041,2.835C865.519,620.834,871.069,632.234,866.531,634.655Z" transform="translate(-483.254 -288.85)" fill="#a1616a"/>
  <path id="Path_113" data-name="Path 113" d="M754.21,822.383l.385-.293A2.072,2.072,0,0,1,754.21,822.383Z" transform="translate(-425.596 -377.332)" fill="#a1616a"/>
  <path id="Path_114" data-name="Path 114" d="M761.647,660.64v13.084a105.839,105.839,0,0,1-1.15,12.923,12.9,12.9,0,0,0-.075,3.157c.4,3.94-.575,18.98-.575,18.98l-1.725,19.48s1.007,10.594.575,12.078a7.324,7.324,0,0,0-.109,1.846c.058,1.725.357,3.94.454,4.6v.2l-.063.046-8.437,6.436c1.346-1.225,1.691-4.078,1.685-6.723v-.863q0-3.71.288-7.419c.276-4.066-1.346-10.3-2.531-14.172-1.513-4.94-3.031-33.807-2.22-35.319s-.1-5.452-1.11-7.672c-.592-1.352-1.167-6.079-1.513-9.53-.219-2.094-.351-3.681-.351-3.681Z" transform="translate(-422.664 -308.738)" fill="#a1616a"/>
  <path id="Path_115" data-name="Path 115" d="M805.26,817.871l.414-.311A2.444,2.444,0,0,1,805.26,817.871Z" transform="translate(-453.325 -375.407)" fill="#a1616a"/>
  <path id="Path_116" data-name="Path 116" d="M812.685,656.14v13.729a105.888,105.888,0,0,1-1.11,12.279,12.9,12.9,0,0,0-.075,3.157c.4,3.94-.575,18.98-.575,18.98l-1.725,19.48s1.012,10.594.61,12.078a7.036,7.036,0,0,0-.109,1.84c.058,1.725.362,3.974.454,4.6a.5.5,0,0,0,.029.19l-.063.046h0l-8.449,6.436c1.306-1.254,1.645-4.072,1.639-6.683V741.4c0-2.473.115-4.946.282-7.419.27-4.066-1.346-10.289-2.531-14.166-1.518-4.94-3.031-33.807-2.22-35.319s-.1-5.452-1.11-7.672a23.056,23.056,0,0,1-1.006-4.8c-.535-3.842-.915-8.414-.915-8.414Z" transform="translate(-450.531 -306.826)" fill="#a1616a"/>
  <path id="Path_117" data-name="Path 117" d="M789.937,458.565l-.086.132a11.077,11.077,0,0,1-7.678,4.6,9.536,9.536,0,0,1-1.352.092c-.034-.138-.063-.276-.1-.408-.661-2.876-1.363-5.176-1.363-5.176s.753-1.087,1.852-2.473c2.985-3.773,8.483-9.737,8.052-1.766a13.664,13.664,0,0,0,.575,4.779A.654.654,0,0,1,789.937,458.565Z" transform="translate(-440.658 -219.536)" opacity="0.1"/>
  <path id="Path_118" data-name="Path 118" d="M784.78,445.3a11.094,11.094,0,0,1-9.737,11.014,10.743,10.743,0,0,1-1.369.086h-.081a11.1,11.1,0,1,1,11.186-11.1Z" transform="translate(-433.131 -212.993)" fill="#a1616a"/>
  <path id="Path_119" data-name="Path 119" d="M802.659,484.194l-10.766,9.2s-11.739-16.748-10.352-20.182a11.546,11.546,0,0,0,.109-5.113c-.155-1.15-.38-2.421-.633-3.618-.075-.374-.155-.742-.236-1.1-.035-.138-.063-.276-.1-.408-.661-2.876-1.363-5.176-1.363-5.176s.753-1.087,1.852-2.473c2.985-3.773,8.483-9.737,8.052-1.766a13.679,13.679,0,0,0,.575,4.779.781.781,0,0,0,.086.27c1.53,4.7,5.257,8.46,8.121,10.79a32.106,32.106,0,0,0,3.71,2.634Z" transform="translate(-442.457 -219.497)" fill="#a1616a"/>
  <path id="Path_120" data-name="Path 120" d="M744.79,668.107l16.857-7.477v13.084a5.8,5.8,0,0,1-1.093-.512c-3.33-2.059-7.477-.46-7.77-.46a8.835,8.835,0,0,1-7.166-.707c-.155-.092-.311-.178-.46-.253C744.911,669.694,744.79,668.107,744.79,668.107Z" transform="translate(-422.664 -308.932)" opacity="0.1"/>
  <path id="Path_121" data-name="Path 121" d="M812.714,656.14v13.729a6.155,6.155,0,0,0-.575,1.271c-.61,1.415-4.745,1.921-8.38,1.323a51.893,51.893,0,0,0-6.965-.437c-.535-3.842-.914-8.414-.914-8.414Z" transform="translate(-450.564 -307.024)" opacity="0.1"/>
  <path id="Path_122" data-name="Path 122" d="M791.281,585.336c-2.83.4-9.892,6.459-13.424,7.672s-3.129,1.409-3.733,2.824-4.745,1.915-8.38,1.317a75.188,75.188,0,0,0-10.5-.409s-7.643,1.323-11-.753-7.477-.46-7.77-.46a8.835,8.835,0,0,1-7.166-.708c-3.531-2.122-8.276-1.311-8.276-1.311s-3.836-2.22-6.056-1.006-7.063-2.421-8.276-3.531,2.3-4.641,4.946-5.654,7.672-16.351,8.173-16.852,2.726-5.855,2.422-7.971S728,546.681,728,546.681l3.83-13.033,1.15-4.026.046-2.4c0-1.081.052-2.467.08-4.026.1-6.442.213-15.995,0-20.314-.034-.667-.069-1.208-.115-1.6-.506-4.337,4.026-13.8,5.147-15.742.828-1.432,6.188-2.519,9.38-3.192a20.551,20.551,0,0,0,2.255-.541,2.633,2.633,0,0,1,.886-.069c3.014.121,11.9,1.984,11.9,1.984-.805,24.323.811,20.084.811,20.084,2.623-2.019,1.007-19.882,1.007-19.882,1.311.6,2.651-.914,2.651-.914l5.119,2.122a50.641,50.641,0,0,1,4.515,3.054,13.605,13.605,0,0,1,3.157,3.106c1.513,2.525,3.635,9.691,3.635,9.691l-1.818,2.876c-1.587,2.548-4.026,6.465-6.528,10.433l-4.44,7.068c-1.984,3.152-3.6,5.711-4.273,6.752a2.507,2.507,0,0,0-.316.811,4.241,4.241,0,0,0-.075.575,9.056,9.056,0,0,0,.236,2.393c1.271,6.027,7.017,15.9,7.017,15.9s5.751,8.776,5.855,11.6,6.257,5.855,7.672,9.691,4.538,5.245,4.135,7.569,4.026,3.33,4.843,4.843S794.105,584.933,791.281,585.336Z" transform="translate(-412.281 -232.985)" fill="#fa595f"/>
  <path id="Path_123" data-name="Path 123" d="M862.989,616.883c-1.559,1.052-4.3,1.012-5.211.869l-.328-4.492,5.55.707A16.941,16.941,0,0,0,862.989,616.883Z" transform="translate(-482.444 -288.876)" opacity="0.1"/>
  <path id="Path_124" data-name="Path 124" d="M827.205,510.09l4.141,2.927s1.915,7.667,3.629,10.393a12.017,12.017,0,0,1,1.513,6.258,21.848,21.848,0,0,1,1.616,2.019c1.214,1.616,2.824,9.72,2.22,10.767s3.485,9.72,3.485,9.72.575.575,1.766,3.733a11.522,11.522,0,0,1,0,6.764s3.129,6.965,1.817,8.88-5.556,1.725-6.16,1.513,1.616-1.311-2.3-1.616-9.087-7.264-9.087-7.264a43.394,43.394,0,0,1-4.44-11.808,86.891,86.891,0,0,0-3.629-12.515c-.506-1.513-2.726-11.3-2.726-11.3Z" transform="translate(-465.029 -245.085)" fill="#fa595f"/>
  <path id="Path_125" data-name="Path 125" d="M777.049,510.09s-.3,23.414-3.129,28.055Z" transform="translate(-436.671 -245.135)" opacity="0.1"/>
  <path id="Path_126" data-name="Path 126" d="M804.032,524.48s-2.623,23.414-4.693,24.622S804.032,524.48,804.032,524.48Z" transform="translate(-450.549 -251.236)" opacity="0.1"/>
  <path id="Path_127" data-name="Path 127" d="M797.605,518.69s-.638,22.08-3.969,24.259S797.605,518.69,797.605,518.69Z" transform="translate(-447.154 -248.783)" opacity="0.1"/>
  <path id="Path_128" data-name="Path 128" d="M748,591.33s-4.176,12.21-3.7,17.254S748,591.33,748,591.33Z" transform="translate(-420.625 -279.565)" opacity="0.1"/>
  <path id="Path_129" data-name="Path 129" d="M785.943,563.93c-5.464,1.225-20.245,3.422-33.243-4.664,0-1.081.052-2.467.08-4.026,4.935,2.715,18.8,9.777,25.852,7.8,3.52-1.006,5.751-1.645,7.149-2.059a7.6,7.6,0,0,0,.161,2.95Z" transform="translate(-429.297 -264.287)" opacity="0.1"/>
  <path id="Path_130" data-name="Path 130" d="M785.943,561.83c-5.464,1.219-20.245,3.416-33.243-4.664,0-1.081.052-2.473.08-4.026,4.935,2.715,18.8,9.777,25.852,7.8,3.52-1,5.751-1.645,7.149-2.053A7.612,7.612,0,0,0,785.943,561.83Z" transform="translate(-429.297 -263.397)" opacity="0.1"/>
  <path id="Path_131" data-name="Path 131" d="M785.943,562.58C780.479,563.8,765.7,566,752.7,557.916c0-1.081.052-2.467.08-4.026,4.935,2.715,18.8,9.777,25.852,7.8,3.52-1,5.751-1.645,7.149-2.053A7.612,7.612,0,0,0,785.943,562.58Z" transform="translate(-429.297 -263.715)" fill="#605d82"/>
  <path id="Path_132" data-name="Path 132" d="M785.943,562.58C780.479,563.8,765.7,566,752.7,557.916c0-1.081.052-2.467.08-4.026,4.935,2.715,18.8,9.777,25.852,7.8,3.52-1,5.751-1.645,7.149-2.053A7.612,7.612,0,0,0,785.943,562.58Z" transform="translate(-429.297 -263.715)" opacity="0.1"/>
  <path id="Path_133" data-name="Path 133" d="M763.352,806.014a.947.947,0,0,1-.035.247L754.88,812.7c1.346-1.225,1.691-4.078,1.685-6.723v-.863a17.026,17.026,0,0,1,3.117-4.981,2.588,2.588,0,0,1,2.876.65v.184a2.652,2.652,0,0,1,.3.449C763.7,802.868,763.461,805.243,763.352,806.014Z" transform="translate(-427.049 -367.938)" opacity="0.1"/>
  <path id="Path_134" data-name="Path 134" d="M763.767,803.046l-6.367,4.371s.04-.512.1-1.265a17.43,17.43,0,0,1,3.261-5.32,2.6,2.6,0,0,1,2.876.65C763.686,802.425,763.767,803.046,763.767,803.046Z" transform="translate(-428.122 -368.238)" opacity="0.1"/>
  <path id="Path_135" data-name="Path 135" d="M762.377,807.1a15.875,15.875,0,0,0-1.323,6.5,10.031,10.031,0,0,1-1.352,5.24,4.514,4.514,0,0,1-.443.638s-4.423-.035-5.97-1.317a1.51,1.51,0,0,1-.426-.489c-.886-1.766,1.725-8.529,1.725-8.529a18.75,18.75,0,0,1,4.153-8C763.706,799.845,762.377,807.1,762.377,807.1Z" transform="translate(-426.021 -368.366)" fill="#5a5773"/>
  <path id="Path_136" data-name="Path 136" d="M760.153,824.856a4.476,4.476,0,0,1-.443.638s-4.423-.034-5.97-1.317c.759-2.519,3.192-10.14,4.325-8.846S759.882,822.423,760.153,824.856Z" transform="translate(-426.137 -374.398)" opacity="0.1"/>
  <path id="Path_137" data-name="Path 137" d="M763.6,815.829l-.3,11.422h1.484s.236-10.019.9-11.422S763.6,815.829,763.6,815.829Z" transform="translate(-430.813 -374.407)" fill="#5a5773"/>
  <path id="Path_138" data-name="Path 138" d="M814.432,801.531l-.035.236h0l-8.4,6.39c1.306-1.254,1.645-4.072,1.639-6.683v-.869a17.008,17.008,0,0,1,3.111-4.975,2.659,2.659,0,0,1,2.9.644v.19a2.374,2.374,0,0,1,.3.443C814.788,798.385,814.541,800.766,814.432,801.531Z" transform="translate(-454.883 -366.026)" opacity="0.1"/>
  <path id="Path_139" data-name="Path 139" d="M814.817,798.537l-6.367,4.377s.04-.512.1-1.265a17.258,17.258,0,0,1,3.255-5.32,2.613,2.613,0,0,1,2.9.65C814.736,797.922,814.817,798.537,814.817,798.537Z" transform="translate(-455.903 -366.322)" opacity="0.1"/>
  <path id="Path_140" data-name="Path 140" d="M813.443,802.6a15.782,15.782,0,0,0-1.329,6.5,10.028,10.028,0,0,1-1.352,5.239,5,5,0,0,1-.443.638s-4.423-.034-5.97-1.317a1.592,1.592,0,0,1-.414-.495c-.88-1.766,1.726-8.529,1.726-8.529a18.75,18.75,0,0,1,4.152-8C814.766,795.355,813.443,802.6,813.443,802.6Z" transform="translate(-453.847 -366.453)" fill="#5a5773"/>
  <path id="Path_141" data-name="Path 141" d="M811.2,820.382a5.032,5.032,0,0,1-.443.638s-4.423-.035-5.97-1.317c.759-2.519,3.192-10.145,4.325-8.851S810.932,817.932,811.2,820.382Z" transform="translate(-453.918 -372.494)" opacity="0.1"/>
  <path id="Path_142" data-name="Path 142" d="M814.661,811.329l-.311,11.417h1.484s.236-10.013.9-11.417S814.661,811.329,814.661,811.329Z" transform="translate(-458.557 -372.495)" fill="#5a5773"/>
  <path id="Path_143" data-name="Path 143" d="M806,486.818c-.069,2.876-1.639,5.941-4.394,6.8-.805.247-1.662.3-2.485.472a5.321,5.321,0,0,0-1.15.351c-1.766.811-2.646,2.824-3,4.733-.127.656-.207,1.317-.288,1.984a14.262,14.262,0,0,1-.788,3.721,9.42,9.42,0,0,1-3.876,4.417,24.957,24.957,0,0,1-6.436,2.692,14.465,14.465,0,0,0,1.725-12.02c-.368-1.179-1.15-2.5-2.4-2.462-.972.029-1.668.891-2.392,1.547-3.566,3.209-9.145,1.777-13.66.161a29.047,29.047,0,0,0,5.435-31.857,10.512,10.512,0,0,1-.989-2.571,5.361,5.361,0,0,1,.247-2.657,11.777,11.777,0,0,1,1.633-3.042c.282-.4.575-.788.874-1.185.385-.523.771-1.052,1.116-1.6a8.8,8.8,0,0,0,1.15-2.49c.512-1.955-.207-4.429-2.1-5.1l-.1-.04c-2.094-.656-2.743-.851-4.17-2.531-.955-1.116-1.5-2.876-3.129-3.2-1.254-.259-2.657.3-3.974.638a11.106,11.106,0,1,1,20.015,8.15c1.472,4.831,5.286,8.685,8.207,11.06l5.119,2.122a50.644,50.644,0,0,1,4.515,3.054,66.03,66.03,0,0,0,3.255,10.519,37.075,37.075,0,0,1,1.725,5.176,12.743,12.743,0,0,1,.316,3.158Z" transform="translate(-436.354 -212.912)" opacity="0.1"/>
  <path id="Path_144" data-name="Path 144" d="M771.457,443.339c1.967.615,2.726,3.146,2.2,5.136s-1.933,3.6-3.123,5.274-2.249,3.675-1.887,5.7a10.514,10.514,0,0,0,.989,2.571,29.1,29.1,0,0,1-5.435,31.857c4.515,1.616,10.1,3.048,13.66-.161.725-.656,1.421-1.518,2.393-1.547,1.236-.04,2.036,1.283,2.4,2.462a14.453,14.453,0,0,1-1.725,12.015c4.158-1.208,8.725-3.077,10.318-7.1.713-1.8.713-3.8,1.07-5.711s1.237-3.917,3-4.728c1.15-.518,2.444-.454,3.635-.822,2.755-.857,4.325-3.917,4.394-6.8s-1.035-5.648-2.07-8.334c-5.751-14.954-.345-2.974-3.5-20.969-.644-3.675.362-5.872,1.185-9.507s.644-7.845-1.881-10.594-6.447-3.261-9.582-5.124c-2.778-1.656-5.222-4.446-8.454-4.394-2.37.035-2.364.42-4.549,1.34-3.779,1.587-8.017,1.11-11.859,2.421-3.451,1.185-7.833,5.061-6.787,9.2,1.409,5.573,5.274,1.472,8.288,2.1,1.633.345,2.174,2.082,3.129,3.2C768.719,442.482,769.363,442.684,771.457,443.339Z" transform="translate(-433.091 -207.986)" fill="#4a4347"/>
  <path id="Path_145" data-name="Path 145" d="M708.609,571.363s-1.633-.173-3.831-.512c-5.751-.874-15.477-2.876-9.944-5.751,5.078-2.657,12.078-.4,16.173,1.4a35.887,35.887,0,0,1,3.4,1.725Z" transform="translate(-395.035 -267.951)" fill="#a1616a"/>
  <path id="Path_146" data-name="Path 146" d="M763.584,505.483s-2.623,13.228-3.934,16.144-3.451,10.6-3.451,10.6-3.1,2.807-5.659,5.533l1.15-4.026.046-2.4c0-1.081.052-2.467.081-4.026.1-6.442.213-15.995,0-20.314.224-.42.368-.679.368-.679l2.042-3.238s3.33-8.88,5.245-11.4S763.584,505.483,763.584,505.483Z" transform="translate(-425.284 -237.197)" opacity="0.1"/>
  <path id="Path_147" data-name="Path 147" d="M719.336,570.671s-.293,1.15-.788,2.7c-.627-.253-1.15-.454-1.536-.575-1.725-.575.3-1.311-.2-2.824-.431-1.3-1.231-.892-2.151-1.254a25.166,25.166,0,0,1,1.95-2.341Z" transform="translate(-404.651 -269.01)" opacity="0.1"/>
  <path id="Path_148" data-name="Path 148" d="M739.275,503.063l-2.042,3.238a61.083,61.083,0,0,0-3.2,6.729c-.431,1.593-1.294,7.689-3.02,9.1s-5.251,5.953-4.745,6.862-4.745,2.019-4.745,2.019-3.531,1.415-3.33,2.525-2.927,2.019-1.818,2.824,2.122,0,2.628,1.513-1.518,2.226.2,2.83,7.367,2.968,7.367,2.968,4.538.765,5.849-1.961,8.782-9.484,8.782-9.484a109.035,109.035,0,0,1,3.451-10.6c1.334-2.927,3.94-16.144,3.94-16.144s-2.122-16.351-4.026-13.8S739.275,503.063,739.275,503.063Z" transform="translate(-409.1 -237.19)" fill="#fa595f"/>
  <path id="Path_149" data-name="Path 149" d="M741.778,556.94s-9.99,1.311-4.641,3.532,7.166,0,7.166,0Z" transform="translate(-416.548 -265.014)" opacity="0.1"/>
  <path id="Path_150" data-name="Path 150" d="M724.79,566.893s5.855-1.208,7.367,0S724.79,566.893,724.79,566.893Z" transform="translate(-410.527 -269.009)" opacity="0.1"/>
  <path id="Path_151" data-name="Path 151" d="M723.74,572.228s.4-1.012,2.421,0S723.74,572.228,723.74,572.228Z" transform="translate(-409.37 -271.306)" opacity="0.1"/>
  <path id="Path_152" data-name="Path 152" d="M838.58,589.32s.609,9.2,3.088,9.5S838.58,589.32,838.58,589.32Z" transform="translate(-471.907 -278.726)" opacity="0.1"/>
  <path id="Path_153" data-name="Path 153" d="M845.585,553.1s.42,2.812-2.214,3.319S845.585,553.1,845.585,553.1Z" transform="translate(-473.982 -263.389)" opacity="0.1"/>
  <path id="Path_154" data-name="Path 154" d="M795.85,600.69s-.132,28.394,5.654,31.891Z" transform="translate(-448.946 -283.509)" opacity="0.1"/>
  <path id="Path_155" data-name="Path 155" d="M809.18,602.8s-.1,28.389,5.648,31.891Z" transform="translate(-456.197 -284.403)" opacity="0.1"/>
  <path id="Path_156" data-name="Path 156" d="M755.72,709.622a21.258,21.258,0,0,1,3.94,0C761.851,709.8,755.72,709.622,755.72,709.622Z" transform="translate(-426.948 -329.509)" opacity="0.1"/>
  <path id="Path_157" data-name="Path 157" d="M755.72,713.073a21.258,21.258,0,0,1,3.94,0C761.851,713.274,755.72,713.073,755.72,713.073Z" transform="translate(-426.948 -330.975)" opacity="0.1"/>
  <path id="Path_158" data-name="Path 158" d="M807.77,705.572a21.28,21.28,0,0,1,3.94,0C813.9,705.779,807.77,705.572,807.77,705.572Z" transform="translate(-455.254 -327.789)" opacity="0.1"/>
  <path id="Path_159" data-name="Path 159" d="M808.94,708.332a21.289,21.289,0,0,1,3.94,0C815.065,708.534,808.94,708.332,808.94,708.332Z" transform="translate(-455.89 -328.961)" opacity="0.1"/>
  <g id="Group_8" data-name="Group 8" transform="translate(323.084 218.656)" opacity="0.1">
    <path id="Path_160" data-name="Path 160" d="M766.416,495.894a29.045,29.045,0,0,0,5.435-31.857,10.511,10.511,0,0,1-.989-2.571c-.362-2.024.69-4.026,1.886-5.7s2.606-3.284,3.123-5.274-.236-4.521-2.2-5.13c-2.093-.656-2.743-.857-4.17-2.536-.955-1.116-1.5-2.876-3.129-3.2-3.014-.627-6.9,3.451-8.288-2.105-.794-3.117,1.524-6.1,4.2-7.874-3.341,1.386-7.206,5.067-6.217,8.961,1.409,5.573,5.274,1.478,8.288,2.105,1.633.339,2.174,2.082,3.129,3.2,1.432,1.679,2.076,1.881,4.17,2.536,1.967.61,2.726,3.14,2.2,5.13s-1.932,3.6-3.123,5.274-2.249,3.675-1.886,5.705a10.571,10.571,0,0,0,.989,2.565,29.1,29.1,0,0,1-5.435,31.857c4.348,1.559,9.68,2.939,13.228.178C774.261,498.344,770.005,497.177,766.416,495.894Z" transform="translate(-755.906 -429.65)"/>
    <path id="Path_161" data-name="Path 161" d="M827.46,535.958a3.965,3.965,0,0,0-1.15.794c.909-.224,1.869-.253,2.761-.535a5.177,5.177,0,0,0,1.875-1.047A22.847,22.847,0,0,0,827.46,535.958Z" transform="translate(-785.818 -474.482)"/>
    <path id="Path_162" data-name="Path 162" d="M805.753,554.76a31.806,31.806,0,0,1-4.371,1.581,14.453,14.453,0,0,0,1.725-12.015c-.362-1.15-1.15-2.5-2.4-2.467a3.067,3.067,0,0,0-1.909,1.093c1.15.04,1.938,1.317,2.3,2.462a14.453,14.453,0,0,1-1.725,12.015,25.255,25.255,0,0,0,6.378-2.669Z" transform="translate(-774.13 -477.323)"/>
  </g>
</svg>
